<svg xmlns="http://www.w3.org/2000/svg" xmlns:xlink="http://www.w3.org/1999/xlink" preserveAspectRatio="xMidYMid" width="40" height="31.25" viewBox="0 0 32 25">
  <defs>
    <style>
      .cls-1 {
        fill: #3c4042;
        stroke: #7d7d7d;
        stroke-linejoin: round;
        stroke-width: 1px;
        filter: url(#color-overlay-1);
        fill-rule: evenodd;
      }
    </style>

    <filter id="color-overlay-1" filterUnits="userSpaceOnUse">
      <feFlood flood-color="#7d7d7d"/>
      <feComposite operator="in" in2="SourceGraphic"/>
      <feBlend in2="SourceGraphic" result="solidFill"/>
    </filter>
  </defs>
  <g style="fill: #3c4042; filter: url(#color-overlay-1)">
    <path d="M27.714,17.503 L23.450,17.503 C23.473,17.666 23.500,17.827 23.500,17.995 C23.500,19.930 21.933,21.499 20.000,21.499 C18.067,21.499 16.500,19.930 16.500,17.995 C16.500,17.828 16.526,17.668 16.549,17.507 L12.451,17.507 C12.473,17.668 12.500,17.828 12.500,17.995 C12.500,19.930 10.933,21.499 9.000,21.499 C7.067,21.499 5.500,19.930 5.500,17.995 C5.500,17.828 5.526,17.668 5.549,17.507 L5.045,17.507 C4.192,17.507 3.500,16.810 3.500,15.951 L3.500,5.055 C3.500,4.196 4.192,3.499 5.045,3.499 L18.954,3.499 C19.808,3.499 20.500,4.196 20.500,5.055 L20.500,6.494 L26.143,6.494 C26.577,6.494 26.928,6.846 26.928,7.282 L28.500,16.717 C28.500,17.152 28.148,17.503 27.714,17.503 ZM9.000,20.490 C10.381,20.490 11.500,19.373 11.500,17.995 C11.500,16.616 10.381,15.499 9.000,15.499 C7.619,15.499 6.500,16.616 6.500,17.995 C6.500,19.373 7.619,20.490 9.000,20.490 ZM19.500,12.490 L19.500,11.504 L19.500,5.499 C19.500,4.947 19.052,4.499 18.500,4.499 L5.500,4.499 C4.948,4.499 4.500,4.947 4.500,5.499 L4.500,15.499 C4.500,16.052 4.948,16.499 5.500,16.499 L5.846,16.499 C6.408,15.315 7.604,14.491 9.000,14.491 C10.396,14.491 11.591,15.315 12.153,16.499 L16.846,16.499 C17.339,15.461 18.322,14.712 19.500,14.542 L19.500,12.490 ZM20.000,15.499 C18.619,15.499 17.500,16.616 17.500,17.995 C17.500,19.373 18.619,20.490 20.000,20.490 C21.381,20.490 22.500,19.373 22.500,17.995 C22.500,16.616 21.381,15.499 20.000,15.499 ZM25.943,7.489 L20.500,7.489 L20.500,11.504 L26.612,11.504 L25.943,7.489 ZM26.776,12.490 L20.500,12.490 L20.500,14.542 C21.681,14.712 22.667,15.465 23.159,16.509 L27.446,16.509 L26.776,12.490 Z" id="path-1" style="stroke: inherit; filter: none; fill: inherit" class="cls-1"/>
  </g>
  <use xlink:href="#path-1" style="stroke: #7d7d7d; filter: none; fill: none"/>
</svg>
