<svg xmlns="http://www.w3.org/2000/svg" xmlns:xlink="http://www.w3.org/1999/xlink" preserveAspectRatio="xMidYMid" width="41.665" height="29.999" viewBox="0 0 25 18">
  <defs>
    <style>
      .cls-1 {
        fill: #3c4042;
        filter: url(#color-overlay-1);
        fill-rule: evenodd;
      }
    </style>

    <filter id="color-overlay-1" filterUnits="userSpaceOnUse">
      <feFlood flood-color="#7d7d7d"/>
      <feComposite operator="in" in2="SourceGraphic"/>
      <feBlend in2="SourceGraphic" result="solidFill"/>
    </filter>
  </defs>
  <path d="M24.214,14.003 L19.950,14.003 C19.973,14.166 20.000,14.327 20.000,14.495 C20.000,16.430 18.433,17.999 16.500,17.999 C14.567,17.999 13.000,16.430 13.000,14.495 C13.000,14.328 13.026,14.168 13.049,14.007 L8.951,14.007 C8.973,14.168 9.000,14.328 9.000,14.495 C9.000,16.430 7.433,17.999 5.500,17.999 C3.567,17.999 2.000,16.430 2.000,14.495 C2.000,14.328 2.026,14.168 2.049,14.007 L1.545,14.007 C0.692,14.007 -0.000,13.310 -0.000,12.451 L-0.000,1.555 C-0.000,0.696 0.692,-0.001 1.545,-0.001 L15.454,-0.001 C16.308,-0.001 17.000,0.696 17.000,1.555 L17.000,2.994 L22.643,2.994 C23.077,2.994 23.428,3.346 23.428,3.782 L25.000,13.217 C25.000,13.652 24.648,14.003 24.214,14.003 ZM5.500,16.990 C6.881,16.990 8.000,15.873 8.000,14.495 C8.000,13.116 6.881,11.999 5.500,11.999 C4.119,11.999 3.000,13.116 3.000,14.495 C3.000,15.873 4.119,16.990 5.500,16.990 ZM16.000,8.990 L16.000,8.004 L16.000,1.999 C16.000,1.447 15.552,0.999 15.000,0.999 L2.000,0.999 C1.448,0.999 1.000,1.447 1.000,1.999 L1.000,11.999 C1.000,12.552 1.448,12.999 2.000,12.999 L2.346,12.999 C2.908,11.815 4.104,10.991 5.500,10.991 C6.896,10.991 8.091,11.815 8.653,12.999 L13.346,12.999 C13.839,11.961 14.822,11.212 16.000,11.042 L16.000,8.990 ZM16.500,11.999 C15.119,11.999 14.000,13.116 14.000,14.495 C14.000,15.873 15.119,16.990 16.500,16.990 C17.881,16.990 19.000,15.873 19.000,14.495 C19.000,13.116 17.881,11.999 16.500,11.999 ZM22.443,3.989 L17.000,3.989 L17.000,8.004 L23.112,8.004 L22.443,3.989 ZM23.276,8.990 L17.000,8.990 L17.000,11.042 C18.181,11.212 19.167,11.965 19.659,13.009 L23.946,13.009 L23.276,8.990 Z" class="cls-1"/>
</svg>
