<svg xmlns="http://www.w3.org/2000/svg" xmlns:xlink="http://www.w3.org/1999/xlink" preserveAspectRatio="xMidYMid" width="29.76" height="24.998" viewBox="0 0 25 21">
  <defs>
    <style>
      .cls-1 {
        fill: #3c4042;
        filter: url(#color-overlay-1);
        fill-rule: evenodd;
      }
    </style>

    <filter id="color-overlay-1" filterUnits="userSpaceOnUse">
      <feFlood flood-color="#7d7d7d"/>
      <feComposite operator="in" in2="SourceGraphic"/>
      <feBlend in2="SourceGraphic" result="solidFill"/>
    </filter>
  </defs>
  <path d="M23.461,20.997 L6.538,20.997 C5.689,20.997 5.000,20.281 5.000,19.397 L5.000,17.997 L6.000,17.997 L6.000,19.122 C6.000,19.605 6.366,19.997 6.818,19.997 L23.182,19.997 C23.633,19.997 24.000,19.605 24.000,19.122 L24.000,6.872 C24.000,6.389 23.633,5.997 23.182,5.997 L22.000,5.997 L22.000,5.810 C22.000,5.362 21.645,4.998 21.208,4.998 L23.461,4.998 C24.311,4.998 25.000,5.713 25.000,6.597 L25.000,19.397 C25.000,20.281 24.311,20.997 23.461,20.997 ZM18.461,15.998 L1.538,15.998 C0.688,15.998 -0.000,15.281 -0.000,14.397 L-0.000,1.598 C-0.000,0.714 0.688,-0.003 1.538,-0.003 L18.461,-0.003 C19.311,-0.003 20.000,0.714 20.000,1.598 L20.000,14.397 C20.000,15.281 19.311,15.998 18.461,15.998 ZM19.000,1.872 C19.000,1.389 18.633,0.998 18.181,0.998 L1.818,0.998 C1.366,0.998 1.000,1.389 1.000,1.872 L1.000,14.123 C1.000,14.606 1.366,14.997 1.818,14.997 L18.181,14.997 C18.633,14.997 19.000,14.606 19.000,14.123 L19.000,1.872 ZM12.994,9.077 C12.994,10.084 12.254,10.943 10.981,11.101 L10.981,12.008 L10.084,12.008 L10.084,11.101 C8.739,10.953 7.999,10.172 7.999,10.172 L8.729,9.215 C8.729,9.215 9.532,9.955 10.575,9.955 C11.138,9.955 11.649,9.679 11.649,9.107 C11.649,7.923 8.124,8.041 8.124,5.919 C8.124,4.903 8.927,4.113 10.084,3.936 L10.084,3.008 L10.981,3.008 L10.981,3.916 C12.191,4.014 12.817,4.636 12.817,4.636 L12.233,5.672 C12.233,5.672 11.524,5.061 10.595,5.061 C9.970,5.061 9.480,5.406 9.480,5.899 C9.480,7.074 12.994,6.866 12.994,9.077 Z" class="cls-1"/>
</svg>
