<svg xmlns="http://www.w3.org/2000/svg" xmlns:xlink="http://www.w3.org/1999/xlink" preserveAspectRatio="xMidYMid" width="34.781" height="30.433" viewBox="0 0 32 28">
  <defs>
    <style>
      .cls-1 {
        fill: #3c4042;
        stroke: #7d7d7d;
        stroke-linejoin: round;
        stroke-width: 1px;
        filter: url(#color-overlay-1);
        fill-rule: evenodd;
      }
    </style>

    <filter id="color-overlay-1" filterUnits="userSpaceOnUse">
      <feFlood flood-color="#7d7d7d"/>
      <feComposite operator="in" in2="SourceGraphic"/>
      <feBlend in2="SourceGraphic" result="solidFill"/>
    </filter>
  </defs>
  <g style="fill: #3c4042; filter: url(#color-overlay-1)">
    <path d="M26.961,24.497 L10.038,24.497 C9.189,24.497 8.500,23.781 8.500,22.897 L8.500,21.497 L9.500,21.497 L9.500,22.622 C9.500,23.105 9.866,23.497 10.318,23.497 L26.682,23.497 C27.133,23.497 27.500,23.105 27.500,22.622 L27.500,10.372 C27.500,9.889 27.133,9.497 26.682,9.497 L25.500,9.497 L25.500,9.310 C25.500,8.862 25.145,8.498 24.708,8.498 L26.961,8.498 C27.811,8.498 28.500,9.213 28.500,10.097 L28.500,22.897 C28.500,23.781 27.811,24.497 26.961,24.497 ZM21.961,19.498 L5.038,19.498 C4.188,19.498 3.500,18.781 3.500,17.897 L3.500,5.098 C3.500,4.214 4.188,3.497 5.038,3.497 L21.961,3.497 C22.811,3.497 23.500,4.214 23.500,5.098 L23.500,17.897 C23.500,18.781 22.811,19.498 21.961,19.498 ZM22.500,5.372 C22.500,4.889 22.133,4.498 21.681,4.498 L5.318,4.498 C4.866,4.498 4.500,4.889 4.500,5.372 L4.500,17.623 C4.500,18.106 4.866,18.497 5.318,18.497 L21.681,18.497 C22.133,18.497 22.500,18.106 22.500,17.623 L22.500,5.372 ZM16.494,12.577 C16.494,13.584 15.754,14.443 14.481,14.601 L14.481,15.508 L13.584,15.508 L13.584,14.601 C12.239,14.453 11.499,13.672 11.499,13.672 L12.229,12.715 C12.229,12.715 13.032,13.455 14.075,13.455 C14.638,13.455 15.149,13.179 15.149,12.607 C15.149,11.423 11.624,11.541 11.624,9.419 C11.624,8.403 12.427,7.613 13.584,7.436 L13.584,6.508 L14.481,6.508 L14.481,7.416 C15.691,7.514 16.317,8.136 16.317,8.136 L15.733,9.172 C15.733,9.172 15.024,8.561 14.095,8.561 C13.470,8.561 12.980,8.906 12.980,9.399 C12.980,10.574 16.494,10.366 16.494,12.577 Z" id="path-1" style="stroke: inherit; filter: none; fill: inherit" class="cls-1"/>
  </g>
  <use xlink:href="#path-1" style="stroke: #7d7d7d; filter: none; fill: none"/>
</svg>
