<svg xmlns="http://www.w3.org/2000/svg" xmlns:xlink="http://www.w3.org/1999/xlink" preserveAspectRatio="xMidYMid" width="22.586" height="17.998" viewBox="0 0 64 51">
  <defs>
    <style>
      .cls-1 {
        fill: #fff;
        filter: url(#color-overlay-1);
        fill-rule: evenodd;
      }
    </style>

    <filter id="color-overlay-1" filterUnits="userSpaceOnUse">
      <feFlood flood-color="#ff7e00"/>
      <feComposite operator="in" in2="SourceGraphic"/>
      <feBlend in2="SourceGraphic" result="solidFill"/>
    </filter>
  </defs>
  <path d="M63.731,11.229 L63.736,11.231 L54.736,31.231 L54.736,31.231 C54.292,32.216 53.332,32.918 52.200,32.993 L52.200,32.993 L26.281,34.721 L27.778,39.000 L56.000,39.000 C59.314,39.000 62.000,41.686 62.000,45.000 C62.000,48.314 59.314,51.000 56.000,51.000 C52.686,51.000 50.000,48.314 50.000,45.000 L22.000,45.000 C22.000,48.314 19.314,51.000 16.000,51.000 C12.686,51.000 10.000,48.314 10.000,45.000 C10.000,41.686 12.686,39.000 16.000,39.000 L21.422,39.000 L9.872,6.000 L3.000,6.000 C1.343,6.000 0.000,4.657 0.000,3.000 C0.000,1.343 1.343,-0.000 3.000,-0.000 L12.000,-0.000 C13.309,-0.000 14.411,0.844 14.820,2.013 L14.832,2.009 L16.579,7.000 L61.000,7.000 C62.657,7.000 64.000,8.343 64.000,10.000 C64.000,10.439 63.901,10.853 63.731,11.229 ZM18.679,13.000 L24.224,28.845 L50.003,27.127 L56.360,13.000 L18.679,13.000 Z" class="cls-1"/>
</svg>
