<svg xmlns="http://www.w3.org/2000/svg" xmlns:xlink="http://www.w3.org/1999/xlink" preserveAspectRatio="xMidYMid" width="17.153" height="17.997" viewBox="0 0 61 64">
  <defs>
    <style>
      .cls-1 {
        fill: #fff;
        filter: url(#color-overlay-1);
        fill-rule: evenodd;
      }
    </style>

    <filter id="color-overlay-1" filterUnits="userSpaceOnUse">
      <feFlood flood-color="#00a8d8"/>
      <feComposite operator="in" in2="SourceGraphic"/>
      <feBlend in2="SourceGraphic" result="solidFill"/>
    </filter>
  </defs>
  <path d="M60.121,55.121 L52.121,63.121 C51.578,63.664 50.829,64.000 50.000,64.000 C49.172,64.000 48.422,63.664 47.879,63.121 L43.879,59.121 C43.336,58.579 43.000,57.829 43.000,57.000 C43.000,55.343 44.343,54.000 46.000,54.000 C46.829,54.000 47.578,54.336 48.121,54.879 L50.000,56.757 L55.879,50.879 C56.422,50.336 57.172,50.000 58.000,50.000 C59.657,50.000 61.000,51.343 61.000,53.000 C61.000,53.828 60.664,54.578 60.121,55.121 ZM49.961,52.554 C48.908,51.602 47.535,51.000 46.000,51.000 C42.686,51.000 40.000,53.686 40.000,57.000 C40.000,58.659 40.683,60.147 41.775,61.225 L41.757,61.243 L44.515,64.000 L3.000,64.000 C1.343,64.000 0.000,62.657 0.000,61.000 L0.000,9.000 C0.000,7.343 1.343,6.000 3.000,6.000 L8.000,6.000 L8.000,9.000 C8.000,12.314 10.686,15.000 14.000,15.000 C17.314,15.000 20.000,12.314 20.000,9.000 L20.000,6.000 L23.000,6.000 L23.000,9.000 C23.000,12.314 25.686,15.000 29.000,15.000 C32.314,15.000 35.000,12.314 35.000,9.000 L35.000,6.000 L38.000,6.000 L38.000,9.000 C38.000,12.314 40.686,15.000 44.000,15.000 C47.314,15.000 50.000,12.314 50.000,9.000 L50.000,6.000 L55.000,6.000 C56.657,6.000 58.000,7.343 58.000,9.000 L58.000,47.000 C56.343,47.000 54.843,47.672 53.757,48.757 L49.961,52.554 ZM8.000,51.500 C8.000,52.881 9.119,54.000 10.500,54.000 L29.500,54.000 C30.881,54.000 32.000,52.881 32.000,51.500 L32.000,51.500 L32.000,51.500 L32.000,51.500 L32.000,51.500 C32.000,50.119 30.881,49.000 29.500,49.000 L10.500,49.000 C9.119,49.000 8.000,50.119 8.000,51.500 ZM47.000,23.000 L11.000,23.000 C9.343,23.000 8.000,24.343 8.000,26.000 C8.000,27.657 9.343,29.000 11.000,29.000 L47.000,29.000 C48.657,29.000 50.000,27.657 50.000,26.000 C50.000,24.343 48.657,23.000 47.000,23.000 ZM47.000,36.000 L29.000,36.000 L24.000,36.000 L11.000,36.000 C9.343,36.000 8.000,37.343 8.000,39.000 C8.000,40.657 9.343,42.000 11.000,42.000 L24.000,42.000 L29.000,42.000 L47.000,42.000 C48.657,42.000 50.000,40.657 50.000,39.000 C50.000,37.343 48.657,36.000 47.000,36.000 ZM44.000,12.000 C42.343,12.000 41.000,10.657 41.000,9.000 L41.000,3.000 C41.000,1.343 42.343,-0.000 44.000,-0.000 C45.657,-0.000 47.000,1.343 47.000,3.000 L47.000,9.000 C47.000,10.657 45.657,12.000 44.000,12.000 ZM29.000,12.000 C27.343,12.000 26.000,10.657 26.000,9.000 L26.000,3.000 C26.000,1.343 27.343,-0.000 29.000,-0.000 C30.657,-0.000 32.000,1.343 32.000,3.000 L32.000,9.000 C32.000,10.657 30.657,12.000 29.000,12.000 ZM14.000,12.000 C12.343,12.000 11.000,10.657 11.000,9.000 L11.000,3.000 C11.000,1.343 12.343,-0.000 14.000,-0.000 C15.657,-0.000 17.000,1.343 17.000,3.000 L17.000,9.000 C17.000,10.657 15.657,12.000 14.000,12.000 Z" class="cls-1"/>
</svg>
