<svg xmlns="http://www.w3.org/2000/svg" xmlns:xlink="http://www.w3.org/1999/xlink" preserveAspectRatio="xMidYMid" width="8.57" height="14.998" viewBox="0 0 24 42">
  <defs>
    <style>
      .cls-1 {
        fill: #fff;
        fill-rule: evenodd;
      }
    </style>
  </defs>
  <path d="M1.046,5.275 L16.764,20.994 L0.840,36.917 L0.841,36.918 C0.321,37.458 0.000,38.191 0.000,39.000 C0.000,40.657 1.343,42.000 3.000,42.000 C3.809,42.000 4.543,41.679 5.082,41.159 L5.083,41.160 L23.083,23.160 L23.082,23.159 C23.648,22.613 24.000,21.848 24.000,21.000 C24.000,20.998 24.000,20.996 24.000,20.994 C24.000,20.991 24.000,20.989 24.000,20.987 C24.000,20.139 23.648,19.374 23.082,18.828 L23.083,18.827 L5.083,0.827 L5.075,0.835 C4.536,0.318 3.806,0.000 3.000,0.000 C1.343,0.000 0.000,1.343 0.000,3.000 C0.000,3.910 0.406,4.725 1.046,5.275 Z" class="cls-1"/>
</svg>
