<svg xmlns="http://www.w3.org/2000/svg" xmlns:xlink="http://www.w3.org/1999/xlink" preserveAspectRatio="xMidYMid" width="25.261" height="14.999" viewBox="0 0 64 38">
  <defs>
    <style>
      .cls-1 {
        fill: #fff;
        fill-rule: evenodd;
      }
    </style>
  </defs>
  <path d="M61.000,22.000 L3.000,22.000 C1.343,22.000 0.000,20.657 0.000,19.000 C0.000,17.343 1.343,16.000 3.000,16.000 L61.000,16.000 C62.657,16.000 64.000,17.343 64.000,19.000 C64.000,20.657 62.657,22.000 61.000,22.000 ZM61.000,6.000 L3.000,6.000 C1.343,6.000 0.000,4.657 0.000,3.000 C0.000,1.343 1.343,0.000 3.000,0.000 L61.000,0.000 C62.657,0.000 64.000,1.343 64.000,3.000 C64.000,4.657 62.657,6.000 61.000,6.000 ZM3.000,32.000 L61.000,32.000 C62.657,32.000 64.000,33.343 64.000,35.000 C64.000,36.657 62.657,38.000 61.000,38.000 L3.000,38.000 C1.343,38.000 0.000,36.657 0.000,35.000 C0.000,33.343 1.343,32.000 3.000,32.000 Z" class="cls-1"/>
</svg>
