<svg xmlns="http://www.w3.org/2000/svg" xmlns:xlink="http://www.w3.org/1999/xlink" preserveAspectRatio="xMidYMid" width="17.855" height="4.285" viewBox="0 0 50 12">
  <defs>
    <style>
      .cls-1 {
        fill: #fff;
        fill-rule: evenodd;
      }
    </style>
  </defs>
  <path d="M44.001,12.003 C40.687,12.003 38.000,9.316 38.000,6.002 C38.000,2.687 40.687,0.000 44.001,0.000 C47.315,0.000 50.001,2.687 50.001,6.002 C50.001,9.316 47.315,12.003 44.001,12.003 ZM25.001,12.003 C21.687,12.003 19.000,9.316 19.000,6.002 C19.000,2.687 21.687,0.000 25.001,0.000 C28.315,0.000 31.001,2.687 31.001,6.002 C31.001,9.316 28.315,12.003 25.001,12.003 ZM6.001,12.003 C2.687,12.003 0.000,9.316 0.000,6.002 C0.000,2.687 2.687,0.000 6.001,0.000 C9.315,0.000 12.001,2.687 12.001,6.002 C12.001,9.316 9.315,12.003 6.001,12.003 Z" class="cls-1"/>
</svg>
