<svg xmlns="http://www.w3.org/2000/svg" xmlns:xlink="http://www.w3.org/1999/xlink" preserveAspectRatio="xMidYMid" width="8.57" height="14.998" viewBox="0 0 24 42">
  <defs>
    <style>
      .cls-1 {
        fill: #fff;
        fill-rule: evenodd;
      }
    </style>
  </defs>
  <path d="M22.954,5.275 L7.236,20.994 L23.160,36.917 L23.159,36.918 C23.679,37.458 24.000,38.191 24.000,39.000 C24.000,40.657 22.657,42.000 21.000,42.000 C20.191,42.000 19.458,41.679 18.918,41.159 L18.917,41.160 L0.917,23.160 L0.918,23.159 C0.352,22.613 0.000,21.848 0.000,21.000 C0.000,20.998 0.000,20.996 0.000,20.994 C0.000,20.991 0.000,20.989 0.000,20.987 C0.000,20.139 0.352,19.374 0.918,18.828 L0.917,18.827 L18.917,0.827 L18.925,0.835 C19.464,0.318 20.194,0.000 21.000,0.000 C22.657,0.000 24.000,1.343 24.000,3.000 C24.000,3.910 23.594,4.725 22.954,5.275 Z" class="cls-1"/>
</svg>
