<svg xmlns="http://www.w3.org/2000/svg" xmlns:xlink="http://www.w3.org/1999/xlink" preserveAspectRatio="xMidYMid" width="9.997" height="9.997" viewBox="0 0 64 64">
  <defs>
    <style>
      .cls-1 {
        fill: #fff;
        fill-rule: evenodd;
      }
    </style>
  </defs>
  <path d="M62.243,53.758 C63.328,54.843 64.000,56.343 64.000,58.000 C64.000,61.314 61.314,64.000 58.000,64.000 C56.343,64.000 54.843,63.329 53.757,62.243 L53.757,62.243 L36.173,44.658 C32.601,46.768 28.449,48.000 24.000,48.000 C10.745,48.000 0.000,37.255 0.000,24.000 C0.000,10.745 10.745,0.000 24.000,0.000 C37.255,0.000 48.000,10.745 48.000,24.000 C48.000,28.449 46.768,32.601 44.658,36.173 L62.243,53.758 L62.243,53.758 ZM24.000,6.000 C14.059,6.000 6.000,14.059 6.000,24.000 C6.000,33.941 14.059,42.000 24.000,42.000 C33.941,42.000 42.000,33.941 42.000,24.000 C42.000,14.059 33.941,6.000 24.000,6.000 Z" class="cls-1"/>
</svg>
