<svg xmlns="http://www.w3.org/2000/svg" xmlns:xlink="http://www.w3.org/1999/xlink" preserveAspectRatio="xMidYMid" width="13.998" height="13.998" viewBox="0 0 46 46">
  <defs>
    <style>
      .cls-1 {
        fill: #fff;
        fill-rule: evenodd;
      }
    </style>
  </defs>
  <path d="M43.000,26.000 L26.000,26.000 L26.000,43.000 C26.000,44.657 24.657,46.000 23.000,46.000 C21.343,46.000 20.000,44.657 20.000,43.000 L20.000,26.000 L3.000,26.000 C1.343,26.000 0.000,24.657 0.000,23.000 C0.000,21.343 1.343,20.000 3.000,20.000 L20.000,20.000 L20.000,3.000 C20.000,1.343 21.343,0.000 23.000,0.000 C24.657,0.000 26.000,1.343 26.000,3.000 L26.000,20.000 L43.000,20.000 C44.657,20.000 46.000,21.343 46.000,23.000 C46.000,24.657 44.657,26.000 43.000,26.000 Z" class="cls-1"/>
</svg>
